<svg width="16" height="16" viewBox="0 0 16 16" fill="none" xmlns="http://www.w3.org/2000/svg">
<path fill-rule="evenodd" clip-rule="evenodd" d="M2.33343 8C2.33343 4.87039 4.87048 2.33333 8.00008 2.33333C11.1297 2.33333 13.6667 4.87039 13.6667 8C13.6667 11.1296 11.1297 13.6667 8.00008 13.6667C6.88528 13.6667 5.8476 13.3455 4.97207 12.7907C4.80913 12.6875 4.60947 12.6599 4.42464 12.7151L2.50521 13.2879L3.2279 11.5969C3.31332 11.397 3.29594 11.1681 3.18133 10.9834C2.64388 10.1173 2.33343 9.09593 2.33343 8ZM8.00008 1C4.1341 1 1.0001 4.13401 1.0001 8C1.0001 9.2254 1.31552 10.3789 1.86985 11.3818L0.720396 14.0713C0.618781 14.3091 0.663822 14.5842 0.835962 14.7771C1.0081 14.9701 1.2763 15.0461 1.52408 14.9721L4.52369 14.077C5.54838 14.6643 6.73588 15 8.00008 15C11.8661 15 15.0001 11.866 15.0001 8C15.0001 4.13401 11.8661 1 8.00008 1ZM9.52842 9.45493L8.65228 10.0721C8.24195 9.83833 7.78828 9.51207 7.33322 9.057C6.86015 8.58393 6.50943 8.09553 6.25083 7.64753L6.80762 7.17493C7.04655 6.97213 7.11195 6.63022 6.96475 6.35352L6.25531 5.02019C6.15978 4.84065 5.98752 4.71453 5.78752 4.67769C5.5875 4.64086 5.38162 4.69733 5.2284 4.83106L5.01806 5.01463C4.51224 5.45609 4.21308 6.18153 4.46102 6.91607C4.71807 7.67753 5.26664 8.876 6.39043 9.9998C7.59948 11.2089 8.82762 11.685 9.54582 11.8699C10.1245 12.0189 10.6721 11.8192 11.0579 11.5048L11.4523 11.1835C11.6209 11.0461 11.7119 10.8349 11.6961 10.6179C11.6801 10.4009 11.5593 10.2053 11.3724 10.0939L10.2535 9.42727C10.0275 9.29267 9.74355 9.30347 9.52842 9.45493Z" fill="url(#paint0_linear_348_7)"/>
<defs>
<linearGradient id="paint0_linear_348_7" x1="7.83342" y1="1" x2="7.83342" y2="15" gradientUnits="userSpaceOnUse">
<stop stop-color="#00468F"/>
<stop offset="1" stop-color="#006AB3"/>
</linearGradient>
</defs>
</svg>
